<svg id="svg2" xmlns="http://www.w3.org/2000/svg" viewBox="0 0 1024 1024"><defs><style>.cls-1{fill:#1380c5;}</style></defs><title>logo.svg</title><g id="layer1"><path id="path3347" class="cls-1" d="M490.66,446.66V848.31h50.52V446.66Z"/><path id="path3343" class="cls-1" d="M597.61,179.81V851.88h51.92V179.81Z"/><path id="path3351" class="cls-1" d="M736,194c46.24-2.81,45.56,34.64,30.06,47.8-34.3,29.11-71.77-13.27-67.61-36.52,25.12-86.8,232.85-76.75,260.9,47.92,17.86,98.17-71.32,198.26-215.6,164-26,23.6-21.46,40.81.87,63.64,94.34-31.63,135.14-6.58,167.78,23,78.65,75,74.74,137.64,75.11,174.59-.35,36.73-15.06,134.12-56.33,154s-101.09,12-104.62-22.44c.69-33.6,48.29-72.58,102.87-26.9,22.76-32,25.08-63.4,24.28-100.9.89-57.63-24.65-109.49-67.6-151.11C841.53,501.74,780.44,484,732.34,513.45c-5.54-34.81-35.83-61.1-69.3-71.48,55.55-7.36,55.06-29.47,62.64-57.39,102.06,37.23,208.73-25.9,197.52-108C908.29,167.27,785.48,171.43,736,194Z"/><path id="path3359" class="cls-1" d="M50.21,608.56c32.07,40.62,125.62,40.92,132.1-7s-70.93-94.16-107-77.81c15.16-329.5,282.07-393.49,287.55-141.64,7.31,335.94-123.18,386-252.15,448.5C304.34,819.33,428.09,597.05,426.17,383.7,423.94,136.37,167.46,125.84,84.46,298S18.14,568,50.21,608.56Z"/><path id="path3361" class="cls-1" d="M536.06,303.27c-29.6-8.51-54.5,19.3-43.82,46.48S527.75,381,546.68,361.7,565.65,311.78,536.06,303.27Z"/><path id="path3363" class="cls-1" d="M486.63,171.66c-23.82-2.9-45.23,21.34-37.18,46.47s44.47,35.8,59.75,13.28S510.45,174.55,486.63,171.66Z"/></g></svg>
